<svg xmlns="http://www.w3.org/2000/svg" xmlns:xlink="http://www.w3.org/1999/xlink" width="24" height="24" viewBox="0 0 24 24">
    <defs>
        <path id="a" d="M12 6c.552 0 1 .453 1 .997v6.006c0 .55-.444.997-1 .997-.552 0-1-.453-1-.997V8c-.552 0-1-.444-1-1 0-.552.444-1 1-1h1zm0 12a8 8 0 1 1 0-16 8 8 0 0 1 0 16zm0-2a6 6 0 1 0 0-12 6 6 0 0 0 0 12zm-6 4c0-.552.456-1 1.002-1h9.996a.999.999 0 1 1 0 2H7.002A.999.999 0 0 1 6 20z"/>
    </defs>
    <g fill="none" fill-rule="evenodd">
        <mask id="b" fill="#fff">
            <use xlink:href="#a"/>
        </mask>
        <use fill="#000" fill-opacity="0" xlink:href="#a"/>
        <g fill="#000" mask="url(#b)">
            <path d="M0 0h24v24H0z"/>
        </g>
    </g>
</svg>
