<svg xmlns="http://www.w3.org/2000/svg" xmlns:xlink="http://www.w3.org/1999/xlink" width="24" height="24" viewBox="0 0 24 24">
    <defs>
        <path id="a" d="M12.246 16.997l2.214.009a4.523 4.523 0 0 0 3.21-1.33A4.52 4.52 0 0 0 19 12.467a4.523 4.523 0 0 0-1.33-3.21 1 1 0 0 1 1.415-1.414A6.522 6.522 0 0 1 21 12.467a6.52 6.52 0 0 1-1.915 4.624 6.525 6.525 0 0 1-4.629 1.915l-1.872-.008.952.952a1 1 0 1 1-1.415 1.414l-2.828-2.828a1 1 0 0 1 0-1.415l2.828-2.828a1 1 0 0 1 1.415 1.414l-1.29 1.29zm-1.181-9.99L9.54 7a4.523 4.523 0 0 0-3.21 1.33A4.52 4.52 0 0 0 5 11.539c0 1.197.466 2.347 1.33 3.21a1 1 0 0 1-1.415 1.414A6.522 6.522 0 0 1 3 11.54a6.52 6.52 0 0 1 1.915-4.624A6.525 6.525 0 0 1 9.544 5l1.878.008-1.3-1.3a1 1 0 0 1 1.414-1.415l2.828 2.828a1 1 0 0 1 0 1.415l-2.828 2.828A1 1 0 0 1 10.12 7.95l.944-.944z"/>
    </defs>
    <g fill="none" fill-rule="evenodd">
        <mask id="b" fill="#fff">
            <use xlink:href="#a"/>
        </mask>
        <use fill="#000" fill-opacity="0" fill-rule="nonzero" xlink:href="#a"/>
        <g fill="#000" mask="url(#b)">
            <path d="M0 0h24v24H0z"/>
        </g>
    </g>
</svg>
