<?xml version="1.0" encoding="UTF-8" standalone="no"?>
<svg
   xmlns:dc="http://purl.org/dc/elements/1.1/"
   xmlns:cc="http://creativecommons.org/ns#"
   xmlns:rdf="http://www.w3.org/1999/02/22-rdf-syntax-ns#"
   xmlns:svg="http://www.w3.org/2000/svg"
   xmlns="http://www.w3.org/2000/svg"
   xmlns:sodipodi="http://sodipodi.sourceforge.net/DTD/sodipodi-0.dtd"
   xmlns:inkscape="http://www.inkscape.org/namespaces/inkscape"
   width="24"
   height="24"
   viewBox="0 0 24 24"
   version="1.1"
   id="svg22"
   sodipodi:docname="settings.svg"
   inkscape:version="0.92.3 (2405546, 2018-03-11)">
  <metadata
     id="metadata28">
    <rdf:RDF>
      <cc:Work
         rdf:about="">
        <dc:format>image/svg+xml</dc:format>
        <dc:type
           rdf:resource="http://purl.org/dc/dcmitype/StillImage" />
      </cc:Work>
    </rdf:RDF>
  </metadata>
  <defs
     id="defs26" />
  <sodipodi:namedview
     pagecolor="#ffffff"
     bordercolor="#666666"
     borderopacity="1"
     objecttolerance="10"
     gridtolerance="10"
     guidetolerance="10"
     inkscape:pageopacity="0"
     inkscape:pageshadow="2"
     inkscape:window-width="1920"
     inkscape:window-height="1052"
     id="namedview24"
     showgrid="false"
     inkscape:zoom="9.8333333"
     inkscape:cx="12"
     inkscape:cy="12"
     inkscape:window-x="1366"
     inkscape:window-y="0"
     inkscape:window-maximized="1"
     inkscape:current-layer="svg22" />
  <path
     style="fill:none;fill-rule:evenodd"
     id="path4"
     d="M 0,0 H 24 V 24 H 0 Z"
     inkscape:connector-curvature="0" />
  <rect
     id="rect6"
     rx="1"
     y="5"
     x="3"
     height="2"
     width="11.158"
     style="fill:#ffffff;fill-rule:evenodd" />
  <rect
     id="rect8"
     rx="1"
     y="5"
     x="18"
     height="2"
     width="3"
     style="fill:#ffffff;fill-rule:evenodd" />
  <rect
     id="rect10"
     rx="1"
     y="11"
     x="3"
     height="2"
     width="4"
     style="fill:#ffffff;fill-rule:evenodd" />
  <rect
     id="rect12"
     rx="1"
     y="17"
     x="18"
     height="2"
     width="3"
     style="fill:#ffffff;fill-rule:evenodd" />
  <rect
     id="rect14"
     rx="1"
     y="11"
     x="11"
     height="2"
     width="10"
     style="fill:#ffffff;fill-rule:evenodd" />
  <rect
     id="rect16"
     rx="1"
     y="17"
     x="3"
     height="2"
     width="11.158"
     style="fill:#ffffff;fill-rule:evenodd" />
  <path
     id="path18"
     d="m 16,9 a 3,3 0 1 1 0,-6 3,3 0 0 1 0,6 z m 0,-2 a 1,1 0 1 0 0,-2 1,1 0 0 0 0,2 z m 0,14 a 3,3 0 1 1 0,-6 3,3 0 0 1 0,6 z m 0,-2 a 1,1 0 1 0 0,-2 1,1 0 0 0 0,2 z M 9,15 a 3,3 0 1 1 0,-6 3,3 0 0 1 0,6 z m 0,-2 a 1,1 0 1 0 0,-2 1,1 0 0 0 0,2 z"
     inkscape:connector-curvature="0"
     style="fill:#ffffff;fill-rule:nonzero" />
</svg>
